 #define no_width 17
 #define no_height 17
 #define no_x_hot 8
 #define no_y_hot 8
 static unsigned char no_bits[] = {
   0x80, 0x03, 0x00, 0xf0, 0x1f, 0x00, 0xf8, 0x3e, 0x00, 0x3c, 0x70, 0x00,
   0x7e, 0xe0, 0x00, 0xfe, 0xc0, 0x00, 0xf6, 0xc1, 0x01, 0xe7, 0xc3, 0x01,
   0xc3, 0x87, 0x01, 0x87, 0xcf, 0x00, 0x06, 0xdf, 0x00, 0x06, 0xfe, 0x00,
   0x0e, 0xfc, 0x00, 0x1c, 0x78, 0x00, 0xf8, 0x3c, 0x00, 0xf0, 0x1f, 0x00,
   0x00, 0x05, 0x00 };